<?xml version="1.0" standalone="no"?>
<!DOCTYPE svg PUBLIC "-//W3C//DTD SVG 20010904//EN"
 "http://www.w3.org/TR/2001/REC-SVG-20010904/DTD/svg10.dtd">
<svg version="1.0" xmlns="http://www.w3.org/2000/svg"
 width="500.000000pt" height="500.000000pt" viewBox="0 0 500.000000 500.000000"
 preserveAspectRatio="xMidYMid meet">

<g transform="translate(0.000000,500.000000) scale(0.100000,-0.100000)"
fill="#000000" stroke="none">
<path d="M2343 3610 c-90 -18 -145 -66 -169 -147 -12 -42 -15 -100 -12 -301
l3 -249 30 -49 c20 -31 47 -58 75 -74 44 -24 51 -25 240 -25 187 0 197 1 235
23 22 13 46 34 55 45 52 72 53 200 2 168 -7 -4 -16 -28 -21 -54 -21 -113 -56
-131 -266 -131 -147 -1 -164 1 -207 22 -35 18 -52 34 -68 67 -20 41 -21 56
-18 298 3 242 4 257 24 284 46 61 71 68 264 68 235 0 238 -2 279 -155 4 -16
15 -26 30 -28 23 -4 24 -3 18 57 -9 103 -58 159 -158 180 -57 13 -274 13 -336
1z"/>
<path d="M1042 2261 c-9 -6 -12 -66 -10 -242 3 -213 5 -234 21 -237 15 -3 17
8 17 118 0 115 1 122 25 145 21 22 33 25 99 25 102 0 106 -6 106 -167 0 -116
1 -123 20 -123 19 0 20 7 20 118 0 173 -25 212 -140 212 -35 0 -70 -7 -93 -19
l-37 -19 0 93 c0 93 -5 110 -28 96z"/>
<path d="M4143 2259 c-46 -13 -73 -53 -73 -105 0 -41 -2 -44 -26 -44 -33 0
-30 -33 4 -38 22 -3 22 -6 22 -148 0 -121 2 -144 15 -144 13 0 15 23 15 144
l0 145 53 3 c38 2 52 7 52 18 0 11 -14 16 -54 18 l-53 3 5 41 c7 49 23 68 68
77 20 4 34 13 34 21 0 18 -21 21 -62 9z"/>
<path d="M621 2217 c-13 -6 -34 -25 -45 -40 -19 -26 -21 -42 -21 -165 0 -214
15 -232 188 -232 120 0 149 13 166 77 17 62 -13 74 -33 13 -16 -50 -46 -61
-149 -58 -83 3 -90 5 -113 31 -23 27 -24 35 -24 163 0 129 1 136 24 159 28 28
108 41 185 30 54 -7 68 -18 80 -62 10 -39 37 -37 33 2 -4 40 -27 74 -58 85
-37 14 -204 12 -233 -3z"/>
<path d="M4307 2193 c-4 -3 -7 -23 -7 -44 0 -34 -3 -38 -27 -41 -36 -4 -37
-32 -2 -36 27 -3 27 -3 31 -110 3 -59 10 -119 17 -133 16 -32 49 -49 97 -49
45 0 41 21 -7 33 -59 14 -69 36 -69 153 l0 103 53 3 c38 2 52 7 52 18 0 11
-14 16 -52 18 l-53 3 0 45 c0 42 -14 57 -33 37z"/>
<path d="M1468 2093 c-3 -10 -4 -83 -4 -163 1 -129 3 -145 19 -148 15 -3 17 6
17 93 0 60 5 108 14 130 16 38 60 65 104 65 33 0 52 27 26 37 -24 9 -93 -16
-120 -42 l-24 -24 0 34 c0 37 -24 50 -32 18z"/>
<path d="M1763 2094 c-45 -23 -56 -57 -51 -169 3 -92 4 -98 31 -121 25 -21 38
-24 113 -24 143 0 170 31 163 188 -4 73 -7 85 -32 109 -25 25 -35 28 -110 31
-60 2 -90 -2 -114 -14z m199 -41 c15 -13 18 -32 18 -107 0 -97 -3 -107 -37
-125 -26 -13 -122 -15 -156 -2 -34 13 -51 68 -44 148 7 92 20 103 120 103 61
0 85 -4 99 -17z"/>
<path d="M2145 2098 c-3 -8 -4 -81 -3 -163 3 -133 5 -150 21 -153 15 -3 17 8
17 116 0 157 6 165 117 170 106 5 107 4 113 -157 4 -110 7 -126 23 -129 15 -3
17 7 17 113 0 182 -19 210 -141 210 -67 0 -81 -3 -102 -23 l-25 -24 -4 23 c-4
26 -25 37 -33 17z"/>
<path d="M2625 2096 c-43 -19 -55 -53 -55 -162 0 -92 1 -97 29 -125 28 -28 34
-29 116 -29 139 0 165 26 165 164 0 81 -21 134 -60 153 -33 17 -157 16 -195
-1z m195 -46 c17 -17 20 -33 20 -108 0 -117 -10 -127 -121 -127 -98 0 -111 10
-117 94 -2 33 -1 76 2 95 11 57 27 66 117 66 66 0 82 -3 99 -20z"/>
<path d="M3050 2092 c-43 -21 -59 -61 -59 -150 -2 -128 32 -162 162 -162 81 0
90 2 113 25 25 25 29 55 8 62 -6 2 -16 -8 -22 -21 -13 -30 -58 -41 -134 -34
-75 8 -88 28 -88 134 0 113 10 124 120 124 74 0 81 -2 96 -25 29 -45 60 -23
34 25 -22 41 -164 55 -230 22z"/>
<path d="M3400 1945 c0 -153 1 -166 18 -163 14 3 18 19 22 113 3 61 9 117 13
125 11 24 48 43 92 49 27 4 41 12 43 24 7 34 -81 16 -125 -25 -20 -19 -23 -19
-24 -5 -1 9 -2 23 -3 29 0 7 -9 14 -18 16 -17 3 -18 -10 -18 -163z"/>
<path d="M3683 2095 c-21 -9 -35 -23 -39 -40 -10 -42 10 -51 35 -16 22 30 25
31 99 31 42 0 82 -4 88 -8 13 -8 34 -46 34 -60 0 -6 -47 -12 -110 -14 -95 -3
-112 -6 -130 -24 -39 -38 -39 -125 0 -164 29 -29 161 -29 208 0 32 20 32 20
32 0 0 -11 7 -20 15 -20 13 0 15 21 15 125 0 143 -10 176 -61 194 -44 15 -147
13 -186 -4z m217 -174 c0 -75 -44 -111 -137 -111 -68 0 -93 20 -93 74 0 23 5
47 12 54 8 8 48 12 115 12 l103 0 0 -29z"/>
<path d="M872 1531 c-4 -11 -5 -46 -2 -78 4 -57 5 -57 8 -14 2 27 10 50 20 58
16 12 16 12 0 13 -10 0 -18 4 -18 10 0 5 8 14 18 19 16 10 16 10 -1 11 -10 0
-21 -9 -25 -19z"/>
<path d="M3105 1540 c-3 -5 -1 -10 4 -10 6 0 11 5 11 10 0 6 -2 10 -4 10 -3 0
-8 -4 -11 -10z"/>
<path d="M427 1533 c-4 -3 -7 -32 -7 -64 0 -61 7 -69 59 -69 27 0 51 16 51 34
0 5 -9 1 -19 -8 -11 -10 -31 -16 -48 -14 -27 3 -28 6 -31 61 l-3 57 40 0 c27
0 44 -6 51 -17 11 -17 11 -17 6 0 -3 10 -6 21 -6 23 0 7 -86 4 -93 -3z"/>
<path d="M1602 1533 c26 -4 27 -7 31 -71 l3 -67 2 67 c2 64 3 67 30 71 15 2 0
4 -33 4 -33 0 -48 -2 -33 -4z"/>
<path d="M2380 1521 c-22 -42 -8 -109 26 -117 33 -8 71 3 78 23 6 15 5 15 -13
-1 -11 -10 -31 -16 -47 -14 -23 2 -30 9 -36 38 -12 60 -2 80 43 80 21 0 39 -4
39 -10 0 -5 4 -10 10 -10 5 0 7 7 4 15 -9 24 -90 20 -104 -4z"/>
<path d="M3614 1475 l1 -70 40 -2 40 -1 -35 6 c-35 7 -35 7 -41 72 l-6 65 1
-70z"/>
<path d="M973 1515 c-8 -9 -9 -16 -3 -20 6 -3 10 -23 10 -45 0 -25 5 -40 16
-44 24 -9 31 -7 12 5 -12 6 -18 22 -18 44 0 22 6 38 18 44 15 9 15 10 0 11 -9
0 -18 4 -20 9 -1 5 -9 3 -15 -4z"/>
<path d="M2999 1520 c-1 -8 -1 -33 1 -55 2 -42 15 -65 34 -65 6 0 3 5 -6 11
-12 6 -18 22 -18 44 0 22 6 38 18 44 15 9 15 10 0 11 -9 0 -19 6 -21 13 -4 8
-6 8 -8 -3z"/>
<path d="M728 1503 c-10 -2 -18 -9 -18 -14 0 -6 6 -7 16 -1 18 10 54 4 54 -9
0 -4 -14 -9 -31 -11 -42 -4 -60 -31 -37 -54 12 -12 25 -15 52 -10 32 6 36 10
36 39 0 18 -4 37 -8 43 -9 14 -42 23 -64 17z m57 -52 c8 -13 -23 -41 -45 -41
-22 0 -34 15 -26 35 6 16 61 21 71 6z"/>
<path d="M1205 1500 c-11 -4 -23 -6 -27 -3 -5 2 -7 -20 -6 -49 l1 -53 6 45 c6
42 8 45 39 48 31 3 32 2 32 -37 0 -23 4 -41 8 -41 7 0 8 15 3 71 -1 20 -29 29
-56 19z"/>
<path d="M1358 1503 c-17 -4 -23 -25 -18 -68 3 -27 19 -37 53 -31 22 5 27 2
27 -15 0 -19 -5 -21 -40 -17 -22 2 -40 0 -40 -5 0 -4 19 -7 43 -5 l42 3 3 68
c2 53 0 67 -12 67 -8 0 -20 2 -28 4 -7 2 -21 2 -30 -1z m62 -49 c0 -27 -5 -35
-24 -40 -35 -8 -46 2 -46 41 0 24 5 35 18 37 36 8 52 -3 52 -38z"/>
<path d="M1858 1503 c-14 -4 -18 -14 -16 -51 l1 -47 4 40 c7 69 53 71 53 2 0
-47 8 -45 14 3 7 64 53 61 59 -3 l4 -42 1 48 c2 47 -6 56 -43 47 -15 -4 -28
-3 -45 3 -8 2 -23 3 -32 0z"/>
<path d="M2080 1503 c-20 -8 -30 -24 -30 -50 0 -47 63 -72 91 -35 11 14 11 15
-1 5 -18 -16 -52 -17 -68 -1 -21 21 -13 28 33 28 39 0 45 3 45 20 0 13 -10 24
-26 30 -14 6 -26 10 -27 9 -1 0 -9 -3 -17 -6z m60 -29 c0 -10 -13 -14 -40 -14
-30 0 -38 3 -34 14 10 27 74 27 74 0z"/>
<path d="M2689 1503 c-18 -4 -30 -44 -22 -74 9 -32 93 -38 93 -7 0 7 -5 6 -14
-2 -20 -16 -60 -9 -64 13 -3 14 4 17 37 17 34 0 41 3 41 20 0 13 -10 24 -26
30 -14 6 -26 9 -27 9 -1 -1 -9 -3 -18 -6z m61 -29 c0 -9 -12 -14 -35 -14 -37
0 -51 25 -17 32 27 6 52 -3 52 -18z"/>
<path d="M2853 1500 c-13 -5 -23 -12 -23 -14 0 -3 10 -2 23 2 26 10 57 5 57
-9 0 -5 -11 -9 -24 -9 -39 0 -56 -11 -56 -36 0 -24 20 -34 68 -31 19 1 22 7
22 44 0 32 -5 45 -19 53 -22 11 -19 11 -48 0z m57 -60 c0 -23 -45 -39 -62 -22
-18 18 -1 42 32 42 23 0 30 -4 30 -20z"/>
<path d="M3378 1499 c-27 -15 -25 -85 2 -94 11 -3 29 -3 40 0 16 5 20 2 20
-15 0 -20 -4 -22 -40 -18 -22 2 -40 0 -40 -5 0 -4 19 -7 43 -5 l42 3 3 66 c3
62 1 67 -20 73 -29 7 -30 7 -50 -5z m62 -45 c0 -27 -5 -35 -24 -40 -35 -8 -46
2 -46 41 0 24 5 35 18 37 36 8 52 -3 52 -38z"/>
<path d="M3780 1503 c-20 -8 -30 -24 -30 -50 0 -47 63 -72 91 -35 11 14 11 15
-1 5 -18 -16 -52 -17 -68 -1 -21 21 -13 28 33 28 39 0 45 3 45 20 0 13 -10 24
-26 30 -14 6 -26 10 -27 9 -1 0 -9 -3 -17 -6z m58 -31 c2 -8 -11 -12 -37 -12
-46 0 -48 2 -26 24 17 16 56 9 63 -12z"/>
<path d="M3943 1500 c-18 -7 -23 -17 -23 -43 0 -41 20 -61 55 -55 20 4 25 1
25 -14 0 -17 -6 -20 -39 -16 -22 2 -37 0 -35 -4 3 -5 22 -8 44 -8 45 0 50 9
50 86 0 40 -4 54 -14 54 -8 0 -20 2 -28 4 -7 3 -23 1 -35 -4z m60 -32 c11 -39
-16 -65 -54 -53 -26 9 -27 72 -1 77 29 7 50 -3 55 -24z"/>
<path d="M4108 1503 c-10 -2 -18 -9 -18 -13 0 -6 10 -6 24 0 17 6 29 5 42 -5
17 -13 16 -14 -18 -15 -42 0 -63 -23 -47 -52 8 -14 20 -18 49 -16 38 3 40 4
40 38 0 19 -4 40 -8 46 -9 14 -42 23 -64 17z m57 -63 c0 -21 -54 -38 -65 -21
-4 8 -6 20 -3 28 8 19 68 13 68 -7z"/>
<path d="M4268 1499 c-12 -7 -18 -22 -18 -49 0 -34 4 -41 24 -46 29 -7 66 3
66 18 0 7 -5 6 -14 -2 -8 -6 -25 -10 -38 -8 -19 2 -24 10 -26 40 -3 41 13 51
58 36 24 -8 24 -7 6 7 -23 17 -34 18 -58 4z"/>
<path d="M602 1445 l1 -50 6 44 c4 31 12 46 26 52 17 6 15 7 -7 6 -27 -1 -28
-3 -26 -52z"/>
<path d="M1093 1455 c0 -27 2 -38 4 -22 2 15 2 37 0 50 -2 12 -4 0 -4 -28z"/>
<path d="M1753 1450 c0 -30 2 -43 4 -27 2 15 2 39 0 55 -2 15 -4 2 -4 -28z"/>
<path d="M2561 1450 l2 -45 6 39 c4 26 13 42 26 47 17 6 15 7 -7 6 -26 -1 -28
-4 -27 -47z"/>
<path d="M3113 1450 c0 -30 2 -43 4 -27 2 15 2 39 0 55 -2 15 -4 2 -4 -28z"/>
<path d="M3192 1448 l1 -53 6 45 c6 42 8 45 38 48 34 3 32 6 46 -63 3 -12 5
-8 6 12 2 53 -7 63 -55 63 l-44 0 2 -52z"/>
<path d="M4403 1459 c6 -49 21 -62 60 -54 23 4 28 1 25 -13 -4 -21 -57 -29
-69 -10 -7 10 -9 9 -9 -5 0 -15 7 -18 43 -15 l42 3 1 70 c1 50 0 59 -5 31 -11
-72 -71 -78 -71 -6 0 23 -5 40 -11 40 -8 0 -10 -14 -6 -41z"/>
<path d="M2200 1398 c0 -19 2 -20 10 -8 13 19 13 30 0 30 -5 0 -10 -10 -10
-22z"/>
</g>
</svg>
